HIERARCHY
ROOT Hips
{
	OFFSET 0.000000 0.000000 0.000000 
	CHANNELS 6 Xposition Yposition Zposition Zrotation Yrotation Xrotation
	JOINT LeftUpLeg
	{
		OFFSET 1.363060 -1.794630 0.839290 
		CHANNELS 3 Zrotation Yrotation Xrotation
		JOINT LeftLeg
		{
			OFFSET 2.448110 -6.726130 0.000000 
			CHANNELS 3 Zrotation Yrotation Xrotation
			JOINT LeftFoot
			{
				OFFSET 2.562200 -7.039590 0.000000 
				CHANNELS 3 Zrotation Yrotation Xrotation
				JOINT LeftToeBase
				{
					OFFSET 0.157640 -0.433110 2.322550 
					CHANNELS 3 Zrotation Yrotation Xrotation
					End Site
					{
						OFFSET 0.000000 0.000000 0.000000 
					}
				}
			}
		}
	}
	JOINT RightUpLeg
	{
		OFFSET -1.305520 -1.794630 0.839290 
		CHANNELS 3 Zrotation Yrotation Xrotation
		JOINT RightLeg
		{
			OFFSET -2.542530 -6.985550 0.000000 
			CHANNELS 3 Zrotation Yrotation Xrotation
			JOINT RightFoot
			{
				OFFSET -2.568260 -7.056230 0.000000 
				CHANNELS 3 Zrotation Yrotation Xrotation
				JOINT RightToeBase
				{
					OFFSET -0.164730 -0.452590 2.363150 
					CHANNELS 3 Zrotation Yrotation Xrotation
					End Site
					{
						OFFSET 0.000000 0.000000 0.000000 
					}
				}
			}
		}
	}
	JOINT Spine
	{
		OFFSET 0.028270 2.035590 -0.193380 
		CHANNELS 3 Zrotation Yrotation Xrotation
		JOINT Spine1
		{
			OFFSET 0.056720 2.048850 -0.042750 
			CHANNELS 3 Zrotation Yrotation Xrotation
			JOINT Neck1
			{
				OFFSET -0.054170 1.746240 0.172020 
				CHANNELS 3 Zrotation Yrotation Xrotation
				JOINT Head
				{
					OFFSET 0.104070 1.761360 -0.123970 
					CHANNELS 3 Zrotation Yrotation Xrotation
					End Site
					{
						OFFSET 0.000000 0.000000 0.000000 
					}
				}
			}
			JOINT LeftArm
			{
				OFFSET 3.362410 1.200890 -0.311210 
				CHANNELS 3 Zrotation Yrotation Xrotation
				JOINT LeftForeArm
				{
					OFFSET 4.983000 -0.000000 -0.000000 
					CHANNELS 3 Zrotation Yrotation Xrotation
					JOINT LeftHand
					{
						OFFSET 3.483560 -0.000000 -0.000000 
						CHANNELS 3 Zrotation Yrotation Xrotation
						JOINT LeftHandIndex1
						{
							OFFSET 0.715260 -0.000000 -0.000000 
							CHANNELS 3 Zrotation Yrotation Xrotation
							End Site
							{
								OFFSET 0.000000 0.000000 0.000000 
							}
						}
					}
				}
			}
			JOINT RightArm
			{
				OFFSET -3.136600 1.374050 -0.404650 
				CHANNELS 3 Zrotation Yrotation Xrotation
				JOINT RightForeArm
				{
					OFFSET -5.241900 -0.000000 -0.000000 
					CHANNELS 3 Zrotation Yrotation Xrotation
					JOINT RightHand
					{
						OFFSET -3.444170 -0.000000 -0.000000 
						CHANNELS 3 Zrotation Yrotation Xrotation
						JOINT RightHandIndex1
						{
							OFFSET -0.622530 -0.000000 -0.000000 
							CHANNELS 3 Zrotation Yrotation Xrotation
							End Site
							{
								OFFSET 0.000000 0.000000 0.000000 
							}
						}
					}
				}
			}
		}
	}
}
MOTION
Frames: 9
Frame Time: 0.041667
0.793991 19.384833 11.319480 -56.807473 80.106726 -61.575800 -2.770305 -4.167094 -24.428334 0.825221 8.051490 21.422623 1.499840 15.071679 26.425949 0.022200 0.961600 2.643000 27.449622 -7.707328 6.245030 -4.187242 -14.135766 39.152060 -3.326533 8.254832 -27.474442 -0.035700 -1.220400 3.355300 2.722021 2.977633 -1.309662 3.026245 1.639978 0.836404 1.892135 2.351076 25.137562 2.192300 0.394600 15.356100 -87.980623 7.714144 19.718721 16.966433 -28.280086 -4.223495 0.149596 0.627753 -2.211431 -7.125000 0.000000 0.000000 78.151184 0.445755 24.845533 -27.928646 38.039728 -10.442631 0.130228 0.055186 -15.548397 7.125000 0.000000 0.000000 
0.942368 19.268848 11.322397 -56.992703 79.735142 -61.861547 -2.497676 -4.079088 -24.028631 0.796080 7.983938 21.209821 1.488342 14.919532 26.310881 0.000000 0.040800 0.112200 27.879428 -7.771135 6.741584 -4.180609 -14.265631 39.685447 -2.648358 2.700267 -28.214464 -0.948000 6.200800 -17.368300 2.740658 3.055700 -1.274837 2.971208 1.685682 1.030625 1.861199 2.339536 25.352583 2.160100 0.397300 15.547100 -87.813899 7.780804 19.914987 16.859317 -28.146776 -4.175353 0.145125 0.625169 -2.321895 -7.125000 0.000000 0.000000 78.487099 0.370738 24.498760 -27.726133 37.858638 -10.312668 0.137024 0.048733 -15.315438 7.125000 0.000000 0.000000 
1.091650 19.248427 11.330143 -57.353110 79.458582 -62.296055 -2.371582 -3.776624 -23.324915 0.713098 7.806167 20.645557 1.499028 14.898292 26.330443 0.000900 -0.197300 -0.542200 28.271394 -5.138855 8.034436 -4.757872 -14.673111 41.019122 -3.568268 14.826140 -24.612855 -1.364400 -7.393000 20.885100 2.769889 2.969567 -1.257285 2.970141 1.647715 1.151756 1.829750 2.460646 25.438888 2.159400 0.438100 15.595400 -87.887438 7.959135 19.673367 16.785941 -28.058757 -4.144581 0.144162 0.624016 -2.280527 -7.125000 0.000000 0.000000 78.686150 0.265445 24.483101 -27.570323 37.722105 -10.213010 0.141478 0.044382 -15.276884 7.125000 0.000000 0.000000 
1.252400 19.078322 11.311633 -56.746140 79.474764 -61.697202 -2.672059 -3.596376 -22.930474 0.654748 7.700778 20.292360 1.549799 15.116080 26.619431 0.001400 -0.244400 -0.671400 28.034844 -8.338785 7.026798 -4.565004 -14.860146 41.927587 -1.553917 -4.990146 -29.526887 -3.896300 12.021100 -35.806600 2.798670 2.719761 -1.224743 3.159395 1.520319 1.407720 2.013439 2.818465 25.417739 2.374400 0.536500 15.541400 -88.407390 8.116846 18.622588 16.645176 -27.895969 -4.089427 0.146934 0.620680 -1.648281 -7.125000 0.000000 0.000000 78.557680 0.127905 24.779500 -27.466686 37.645941 -10.152454 0.137611 0.048677 -15.217524 7.125000 0.000000 0.000000 
1.423410 19.058002 11.311835 -55.389492 79.703757 -60.275674 -3.313825 -2.997129 -22.300405 0.565817 7.543503 19.770957 1.619338 15.042093 26.854253 0.006000 -0.499300 -1.372100 27.546685 -6.796187 7.509862 -5.203251 -15.324661 43.597846 -3.296931 6.315915 -28.915930 -0.353000 3.817100 -10.562600 2.709350 2.669201 -1.231255 3.148668 1.489821 1.620833 2.180473 2.884017 25.487737 2.475700 0.579800 15.553600 -88.510578 8.461146 18.149478 16.600164 -27.847901 -4.072507 0.147008 0.616926 -1.088765 -7.125000 0.000000 0.000000 79.036678 -0.365173 24.277053 -27.583727 37.769996 -10.234213 0.135099 0.059812 -14.824867 7.125000 0.000000 0.000000 
1.575810 18.982556 11.316361 -55.571497 79.858500 -60.316627 -3.685138 -2.612021 -22.140570 0.558114 7.545494 19.764850 1.650153 14.844693 26.910779 0.026500 -1.051600 -2.890800 27.450891 -6.635737 7.441166 -5.534447 -15.644676 44.877457 -3.328034 6.584868 -28.857061 -0.359700 3.852900 -10.663200 2.621887 2.739913 -1.314517 3.035554 1.520867 1.574125 2.137129 2.649354 25.589848 2.354200 0.544800 15.594700 -88.186655 8.861096 18.695445 16.590433 -27.840421 -4.067964 0.140476 0.625444 -1.303228 -7.125000 0.000000 0.000000 79.738532 -1.002122 23.396439 -27.680932 37.863489 -10.299964 0.136394 0.067570 -14.671804 7.125000 0.000000 0.000000 
1.729519 18.876530 11.307207 -56.992161 80.034178 -61.524801 -4.024743 -2.308955 -21.807603 0.478632 7.361017 19.208060 1.787732 14.699614 27.532731 0.061300 -1.598100 -4.396300 27.339401 -6.955929 6.909775 -5.923303 -16.026868 46.478503 -3.225495 5.398022 -29.234374 -0.676200 5.258000 -14.645800 2.640940 2.622377 -1.366907 3.175353 1.455590 1.672284 2.059495 2.576364 25.708311 2.279000 0.527700 15.676900 -88.264853 8.990442 18.897485 16.396461 -27.616538 -3.990774 0.145028 0.633262 -1.629543 -7.125000 0.000000 0.000000 79.674299 -1.315398 23.406993 -27.428378 37.641073 -10.140087 0.144662 0.068041 -15.296921 7.125000 0.000000 0.000000 
1.888760 18.789214 11.297047 -57.877013 80.525831 -62.299603 -4.633576 -2.439514 -21.367628 0.466812 7.386918 19.252581 1.847637 14.502054 27.690359 0.054700 -1.509000 -4.150500 26.760039 -7.195114 6.769182 -6.344950 -16.364693 47.891559 -3.457264 7.174479 -29.114826 -0.350200 3.802200 -10.520800 2.625223 2.424317 -1.391296 3.409668 1.341663 1.810854 2.023835 2.602398 25.831295 2.266900 0.527900 15.793000 -88.482033 8.999622 18.531379 16.049266 -27.195474 -3.853571 0.165315 0.627514 -1.302333 -7.125000 0.000000 0.000000 79.553200 -1.626231 23.529996 -27.350803 37.578828 -10.092501 0.149879 0.069950 -15.875830 7.125000 0.000000 0.000000 
2.049610 18.697472 11.292621 -58.725618 80.913287 -63.132271 -5.081030 -2.723505 -20.785609 0.490008 7.507506 19.566152 1.795134 14.364921 27.283729 0.029900 -1.115900 -3.067600 26.253162 -7.393373 6.846254 -6.743007 -16.667653 49.194098 -3.616844 8.912404 -28.693613 -0.196700 2.856100 -7.878500 2.587198 2.330706 -1.417705 3.537054 1.282779 1.864450 2.001688 2.525295 25.893702 2.230000 0.507200 15.862400 -88.379961 9.044701 18.485377 15.758366 -26.830567 -3.737002 0.174318 0.622766 -1.010263 -7.125000 0.000000 0.000000 79.780084 -1.915632 23.015678 -27.222701 37.463333 -10.014110 0.149370 0.073637 -15.862532 7.125000 0.000000 0.000000 
